<svg xmlns="http://www.w3.org/2000/svg" xmlns:xlink="http://www.w3.org/1999/xlink" version="1.1" x="0px" y="0px" viewBox="0 0 100 26.181" enable-background="new 0 0 100 26.181" xml:space="preserve"><path d="M99.405,6.869c-0.648-0.622-1.644-0.71-2.391-0.214c-0.03,0.02-2.99,1.955-7.068,2.892  c-5.244,1.204-9.84,0.266-13.662-2.791C63.791-3.239,53.234,0.384,50,1.91c-3.236-1.525-13.792-5.147-26.285,4.846  c-3.82,3.057-8.415,3.997-13.661,2.791C5.975,8.61,3.016,6.675,2.99,6.657c-0.749-0.5-1.743-0.412-2.394,0.208  s-0.785,1.609-0.322,2.381c0.348,0.58,8.694,14.239,23.196,16.592c1.401,0.228,2.809,0.342,4.222,0.342  c7.34,0,14.821-3.07,22.308-9.152c7.487,6.082,14.968,9.152,22.308,9.152c1.413,0,2.821-0.114,4.222-0.342  c14.503-2.354,22.85-16.012,23.196-16.592C100.188,8.477,100.055,7.49,99.405,6.869z"></path></svg>