<svg xmlns="http://www.w3.org/2000/svg" xmlns:xlink="http://www.w3.org/1999/xlink" version="1.0" x="0px" y="0px" viewBox="0 0 100 125" enable-background="new 0 0 100 100" xml:space="preserve"><path d="M31.155,87.062c-4.893,0-8.874-3.904-8.997-8.768V51.062c0-4.507,2.483-8.433,6.157-10.484l1.167-25.516h9l1.158,25.323  c3.87,1.992,6.518,6.025,6.518,10.677l-0.003,27c0,4.971-4.029,9-9,9H31.155L31.155,87.062z"/><path d="M75.97,81.134c-0.404,3.342-3.25,5.929-6.7,5.929h-6c-3.365,0.005-6.279-2.504-6.7-5.929l-3.872-31.533h27.145L75.97,81.134  L75.97,81.134z"/><text x="0" y="115" fill="#000000" font-size="5px" font-weight="bold" font-family="'Helvetica Neue', Helvetica, Arial-Unicode, Arial, Sans-serif">Created by Sascha Elmers</text><text x="0" y="120" fill="#000000" font-size="5px" font-weight="bold" font-family="'Helvetica Neue', Helvetica, Arial-Unicode, Arial, Sans-serif">from the Noun Project</text></svg>